<?xml version="1.0" standalone="no"?>
<!DOCTYPE svg PUBLIC "-//W3C//DTD SVG 1.1//EN" "http://www.w3.org/Graphics/SVG/1.1/DTD/svg11.dtd" >
<svg xmlns="http://www.w3.org/2000/svg">
<metadata>Generated by IcoMoon</metadata>
<defs>
<font id="cyno-icon" horiz-adv-x="1024">
<font-face units-per-em="1024" ascent="960" descent="-64" />
<missing-glyph horiz-adv-x="1024" />
<glyph unicode="&#x20;" horiz-adv-x="512" d="" />
<glyph unicode="&#xe900;" glyph-name="lock" d="M763.437 227.723c-9.78-5.498-13.449-18.336-7.945-28.72 6.11-9.47 19.25-12.838 29.339-6.721l14.975 8.556v-16.198c0-11.608 9.477-20.776 21.394-20.776s21.394 9.47 21.394 20.776v16.198l14.975-8.556c10.694-6.117 23.841-2.144 29.339 7.024 3.058 4.584 3.67 10.082 2.447 15.278-1.223 5.505-4.893 10.391-10.089 13.14l-15.889 9.168 15.889 9.168c5.196 2.749 8.556 7.333 10.089 13.133 1.223 5.505 0.612 11.003-2.447 15.587-6.11 9.777-19.257 13.139-29.036 7.333l-14.975-8.556v16.194c0 11.611-9.47 20.778-21.394 20.778-11.917 0-21.387-9.472-21.387-20.778v-16.194l-14.673 8.556c-10.089 5.806-22.92 2.445-29.339-7.028-3.058-4.58-3.67-10.085-2.447-15.28 1.223-5.498 4.893-10.384 10.089-13.133l15.889-9.168-16.198-9.78zM142.723 227.723c-9.78-5.498-13.447-18.336-7.946-28.72 6.112-9.47 18.948-12.838 29.339-6.721l14.975 8.556v-16.198c0-11.608 9.474-20.776 21.394-20.776s21.393 9.47 21.393 20.776v16.198l14.669-8.556c10.391-6.117 23.839-2.144 29.34 7.024 3.056 4.584 3.667 10.082 2.445 15.278-1.222 5.505-4.89 10.391-10.085 13.14l-15.892 9.168 15.892 9.168c5.196 2.749 8.558 7.333 10.085 13.133 1.223 5.505 0.612 11.003-2.445 15.587-6.112 9.777-19.254 13.139-29.034 7.333l-14.975-8.556v16.194c0 11.611-9.474 20.778-21.393 20.778s-21.394-9.472-21.394-20.778v-16.194l-14.669 8.556c-10.086 5.806-22.922 2.445-29.34-7.028-3.056-4.58-3.667-10.085-2.445-15.28 1.528-6.11 5.196-10.694 10.085-13.745l15.892-9.168-15.892-9.168zM960.258 378.055h-58.375v130.776c0 29.639-25.057 53.778-55.619 53.778h-72.738v140.249c0 67.527-27.201 130.776-77.019 178.443-49.511 47.666-115.525 73.638-185.512 73.638-144.559 0-262.528-113.055-262.528-252.081v-140.249h-72.738c-30.562 0-55.623-24.139-55.623-53.778v-130.776h-58.068c-11.919 0-21.393-9.472-21.393-20.778v-241.995c0-11.614 9.474-20.782 21.393-20.782h58.068v-100.833c0-29.634 24.755-53.777 55.317-53.777h670.532c30.562 0 55.626 24.143 55.626 53.777v100.833h58.368c11.924 0 21.394 9.477 21.394 20.782v241.995c0.309 11.305-9.47 20.778-21.085 20.778zM858.792 94.198v-103.28c-1.223-5.498-6.419-9.47-12.529-9.47h-670.535c-7.029 0-12.836 5.498-12.836 11.917v100.833h695.899zM380.495 702.247c0 69.055 58.679 125.277 130.805 125.277 34.841 0 67.848-13.139 92.603-36.666s38.203-55 38.203-88.305v-139.943h-261.306v139.637h-0.305zM633.855 820.19c-32.701 31.473-76.406 48.889-122.86 48.889-95.659 0-173.592-74.861-173.592-166.832v-140.249h-45.844v139.944c0 116.11 98.41 210.526 219.436 210.526 58.679 0 113.997-22 155.256-61.722 41.565-39.722 64.178-92.583 64.178-148.804v-139.944h-45.841v139.944c0 44.916-18.031 86.777-50.733 118.249zM175.729 520.443h670.838c7.031 0 12.838-5.5 12.838-11.916v-130.777h-696.206v130.777c0 6.722 5.501 11.916 12.531 11.916zM938.864 336.194v-200.446h-855.432v200.446h855.432zM556.53 227.723c-10.085-5.807-13.753-18.638-7.947-28.72 6.113-9.47 18.949-12.838 29.34-6.721l14.975 8.556v-16.198c0-11.608 9.474-20.776 21.393-20.776s21.394 9.47 21.394 20.776v16.198l14.975-8.556c10.391-6.117 23.839-2.144 29.339 7.024 2.751 4.584 3.668 10.082 2.445 15.278-1.223 5.505-4.89 10.391-10.085 13.14l-15.893 9.168 15.893 9.168c5.196 2.749 8.558 7.333 10.085 12.831 1.528 5.196 0.611 11.003-2.445 15.889-6.112 9.777-19.254 13.139-29.033 7.333l-14.976-8.556v16.194c0 11.611-9.474 20.778-21.393 20.778s-21.393-9.472-21.393-20.778v-16.194l-14.67 8.556c-9.78 5.806-22.921 2.445-29.033-7.028-3.056-4.58-3.668-10.085-2.445-15.28 1.223-5.498 4.89-10.384 10.085-13.133l15.893-9.168-16.504-9.78zM341.986 199.003c6.112-9.47 18.949-12.838 29.34-6.721l14.975 8.556v-16.198c0-11.608 9.474-20.776 21.393-20.776s21.393 9.47 21.393 20.776v16.198l14.67-8.556c10.391-6.117 23.839-2.144 29.339 7.024 3.056 4.584 3.668 10.082 2.445 15.278-1.223 5.505-4.89 10.391-10.085 13.14l-15.893 9.168 15.893 9.168c5.196 2.749 8.558 7.333 10.085 13.133 1.223 5.505 0.611 11.003-2.445 15.587-6.112 9.777-19.254 13.139-29.033 7.333l-14.976-8.556v16.194c0 11.611-9.474 20.778-21.393 20.778s-21.393-9.472-21.393-20.778v-16.194l-14.67 8.556c-10.085 5.806-22.921 2.445-29.339-7.028-3.056-4.58-3.667-10.085-2.445-15.28 1.223-5.498 4.89-10.384 10.085-13.133l15.893-9.168-15.893-9.168c-10.085-6.419-13.753-18.947-7.946-29.332z" />
<glyph unicode="&#xe901;" d="M268.084 81.369c0-5.137-1.959-10.036-5.631-13.461-3.673-3.43-8.569-5.632-13.466-5.632h-187.046c-16.403 0-32.072 6.612-43.824 18.113-11.507 11.748-18.117 27.417-18.117 43.817v187.004c0 5.14 1.959 10.036 5.631 13.462 3.672 3.672 8.569 5.63 13.465 5.63s10.038-1.958 13.465-5.63c3.672-3.672 5.631-8.567 5.631-13.462v-187.004c0-6.364 2.448-12.238 6.855-16.648 4.407-4.404 10.527-6.849 16.648-6.849h187.046c5.141 0 10.038-1.96 13.466-5.632 3.917-3.672 5.876-8.566 5.876-13.708zM19.096 567.975c5.141 0 10.038 1.958 13.465 5.63 3.672 3.672 5.631 8.567 5.631 13.462v187.006c0 6.364 2.448 12.238 6.855 16.644s10.527 6.854 16.648 6.854h187.046c5.141 0 10.038 1.958 13.466 5.63 3.673 3.672 5.631 8.567 5.631 13.462 0 5.14-1.958 10.035-5.631 13.462-3.672 3.672-8.569 5.63-13.466 5.63h-186.801c-16.403 0-32.072-6.609-43.824-18.113-11.507-11.504-18.117-27.17-18.117-43.569v-187.006c0-5.14 1.959-10.035 5.631-13.462s8.324-5.63 13.465-5.63zM863.496 330.303c-5.137 0-10.036-1.958-13.461-5.63-3.672-3.672-5.632-8.567-5.632-13.462v-187.004c0-6.364-2.45-12.238-6.854-16.648-4.41-4.404-10.532-6.849-16.648-6.849h-187.051c-5.137 0-10.036-1.96-13.461-5.632-3.43-3.672-5.632-8.566-5.632-13.461 0-4.9 1.954-10.036 5.632-13.466 3.672-3.672 8.566-5.626 13.461-5.626h187.051c16.401 0 32.069 6.606 43.823 18.113 11.506 11.501 18.118 27.411 18.118 43.812v187.007c0 5.14-1.96 10.035-5.632 13.462s-8.572 5.385-13.714 5.385zM820.901 836h-187.051c-5.137 0-10.036-1.958-13.461-5.63-3.43-3.672-5.88-8.567-5.88-13.462 0-5.14 1.96-10.036 5.632-13.462s8.572-5.63 13.466-5.63h187.045c6.364 0 12.244-2.448 16.648-6.854 4.41-4.406 6.854-10.525 6.854-16.645v-187.005c0-5.14 1.96-10.036 5.632-13.462 3.672-3.672 8.572-5.63 13.466-5.63s10.036 1.958 13.466 5.63c3.672 3.672 5.632 8.567 5.632 13.462v187.005c0 16.4-6.612 32.065-18.118 43.814-11.264 11.259-26.932 17.868-43.333 17.868zM372.134 601.754v-22.764h22.769v22.764h-22.769zM508.747 656.828v22.764h-22.769v-22.764h22.769zM485.978 601.754h22.769v22.764h-22.769v-22.764zM394.903 624.518h22.769v55.074h22.769v-22.764h22.769v22.764h22.769v22.764h-113.844v-22.764h22.769v-55.074zM440.441 601.754v-22.764h22.769v45.527h-45.538v-22.764h22.769zM554.287 318.799h22.765v22.764h-22.765v-22.764zM531.516 533.463h-0.245v168.892h159.868v-168.892h-159.623zM554.287 556.227h113.84v123.364h-113.84v-123.364zM531.516 460.276h-22.769v25.211h22.769v22.764h-22.769v70.494h-45.537v-22.764h22.769v-136.582h-45.538v22.764h22.769v114.064h-22.769v-22.764h-22.769v-68.291h-45.538v22.764h-45.537v20.561h-22.769v-20.561h-22.769v20.561h-22.769v-43.325h22.524v-22.764h-22.524v-22.764h-22.769v22.764h-23.014v43.324h-22.524v-100.111h22.769v34.023h22.769v-22.764l68.551 0.245v22.764h-22.769v22.764h22.769v-22.764h35.745v22.764h32.562v-22.764h22.769v22.764h22.769v-77.837h22.769v24.722h22.769v-24.722h22.769v-22.764h-43.089v-22.764h-22.769v-77.839h22.769v55.075h22.769v22.764h42.844v45.527h22.769v95.461zM577.052 578.991h68.311v77.837h-68.311v-77.837zM691.139 483.285h-22.765v-23.008h-22.77v50.178h-22.77v-72.942h45.54v-23.008h22.765v68.78zM508.747 296.035h22.769v22.764h-22.769v-22.764zM645.362 318.799v45.527h-22.77v-45.527h22.77zM668.127 414.749h-22.765v-22.764h22.765v22.764zM691.139 391.985h-22.765v-72.942h-22.77v-22.764h45.535v95.705zM394.903 243.651h-22.769v-48.216h48.231v22.765h-25.462v25.451zM417.672 578.991h-22.769v-22.764h22.769v22.764zM465.902 273.27h22.769v22.765h-22.769v-22.765zM349.366 396.636h22.769v22.764h-22.769v-22.764zM645.362 296.035h-91.075v-22.765h22.765v-32.311h-22.765v22.765h-22.771v-22.765h-22.769v-22.759h45.54v-22.765h22.765v22.765h22.77v55.070h45.54v22.765zM235.277 508.251h-22.769v-22.764h22.769v22.764zM465.902 195.678v22.765h20.321v22.765h-43.089v-45.529h22.769zM372.134 270.826h22.769v48.217h-22.769v-48.217zM235.522 578.991h68.306v77.837h-68.306v-77.837zM189.984 702.355h159.381v-168.892h-159.871v168.892h0.489zM212.753 556.227h113.844v123.364h-113.844v-123.364zM394.903 556.227h-22.769v-22.764h22.769v22.764zM645.362 243.651h-22.77v-48.216h22.77v32.311h45.535v45.524h-45.535v-29.619zM189.984 364.571h159.381v-168.893h-159.871v168.893h0.489zM212.753 218.442h113.844v123.365h-113.844v-123.365zM235.522 241.207h68.306v77.836h-68.306v-77.836zM577.052 341.562v22.764h-22.765v95.95h-22.771v22.764h22.771v27.17h22.765v-50.178h21.3v-45.527h22.77v-50.423h-21.3v-22.764h-22.77v0.245zM577.052 392.23h21.3v22.764h-21.3v-22.764z" />
<glyph unicode="&#xe902;" d="M856.89 559.653c-91.318 0-165.993-74.411-165.993-165.71s74.427-165.712 165.993-165.712c91.318 0 165.745 74.413 165.745 165.712s-74.427 165.71-165.745 165.71zM924.215 454.157c2.94 0 5.88-0.734 8.572-2.448 2.444-1.713 4.404-3.916 5.632-6.854 1.222-2.692 1.464-5.874 0.974-8.811s-1.954-5.63-4.162-7.833l-90.338-90.321c-2.94-2.692-6.612-4.405-10.526-4.405-3.92 0-7.834 1.468-10.532 4.405l-45.293 45.283c-1.464 1.469-2.444 3.182-3.182 4.895-0.732 1.714-1.222 3.917-1.222 5.875 0 3.916 1.712 7.832 4.404 10.77 2.94 2.938 6.612 4.406 10.774 4.406 3.92 0 7.834-1.713 10.774-4.406l34.519-34.513 79.811 79.795c2.208 2.448 5.88 4.161 9.794 4.161z" />
<glyph unicode="&#xe903;" glyph-name="contact" d="M514.476 616.43c38.039 0 68.876 31.849 68.876 71.137s-30.836 71.137-68.876 71.137c-38.039 0-68.876-31.849-68.876-71.137s30.836-71.137 68.876-71.137zM414.293 569.48c-20.207-12.52-35.86-30.447-46.96-52.641-9.962-20.202-13.946-40.121-15.654-53.494-0.854-7.683-1.139-13.943-1.423-17.642 0-1.992 0-3.699 0-5.406v-23.902h324.17v23.048c0 0.285 0 0.569 0 1.138 0 1.139 0 2.561 0 4.838 0 5.691-0.569 11.667-1.423 17.642-1.708 13.374-5.692 33.577-15.654 53.495-11.1 22.195-26.753 39.836-46.961 52.641-25.615 16.22-58.629 24.187-98.19 24.187-39.276 0.285-72.291-7.683-97.906-23.902zM729.075 323.631h-417.807v-36.425h417.807v36.425zM729.075 210.95h-417.807v-36.422h417.807v36.422zM729.075 110.509h-417.807v-36.422h417.807v36.422zM676.991 957.885l-1.708 1.423h-400.161c-69.16 0-125.228-56.34-125.228-125.201v-769.416c0-69.139 56.353-125.197 125.228-125.197h472.167c69.159 0 125.229 56.339 125.229 125.197v724.458l-195.528 168.736zM735.051 736.792h101.039v-672.383c0-48.941-39.846-88.781-88.801-88.781h-472.167c-48.953 0-88.798 39.84-88.798 88.781v769.413c0 48.942 39.845 88.778 88.798 88.778h333.277v-66.868c0-65.446 56.922-118.941 126.652-118.941zM826.694 780.044h-91.644c-46.107 0-83.96 33.861-83.96 75.69v66.868h10.531l165.073-142.558z" />
<glyph unicode="&#xe904;" glyph-name="logout" d="M350.883-3.136h-212.332c-21.18 0-41.301 8.471-56.657 23.294-14.826 14.823-23.298 34.94-23.298 56.115v743.261c0 21.175 8.472 41.292 23.298 56.115s34.947 23.293 56.657 23.293h212.332c14.825 0 26.475 11.647 26.475 26.469s-11.65 26.469-26.475 26.469h-212.332c-35.477 0-68.836-13.764-93.722-38.645s-38.654-58.233-38.654-93.702v-743.261c0-35.47 13.767-68.821 38.654-93.702s58.246-38.645 93.722-38.645h212.332c14.825 0 26.475 11.646 26.475 26.469s-11.65 26.469-26.475 26.469zM1012.765 438.373c1.588 3.177 2.118 6.882 2.118 10.059 0 3.176-0.53 6.882-2.118 10.058-1.588 3.177-3.177 6.352-5.825 8.469l-265.811 265.754c-10.59 10.588-27.005 10.588-37.595 0s-10.59-26.999 0-37.587l220.274-220.225h-572.926c-14.825 0-26.475-11.646-26.475-26.469s11.65-26.47 26.475-26.47h573.455l-220.274-220.225c-10.59-10.588-10.59-26.999 0-37.587 5.295-5.294 12.178-7.941 18.532-7.941s13.767 2.647 18.533 7.941l265.811 265.753c2.648 2.118 4.766 5.294 5.825 8.471z" />
<glyph unicode="&#xe905;" glyph-name="trash" d="M918.099 769.935h-187.954v59.364c0 34.369-12.947 66.952-35.716 91.502-23.215 24.995-55.806 39.278-89.289 39.278h-179.025c-33.484 0-66.074-14.283-89.289-39.278-23.216-24.549-35.716-57.132-35.716-91.502v-59.364h-187.954c-19.644 0-35.716-16.069-35.716-35.707 0-19.64 16.072-35.708 35.716-35.708h53.573v-630.242c0-34.368 12.947-66.953 35.715-91.501 23.216-24.994 55.806-39.279 89.29-39.279h447.338c33.484 0 66.074 14.286 89.29 39.279 23.215 24.549 35.716 57.133 35.716 91.501v630.242h54.020c19.644 0 35.716 16.069 35.716 35.708s-16.072 35.707-35.716 35.707zM372.095 829.298c0 16.069 5.804 31.691 16.519 42.85 10.268 10.712 23.216 16.515 37.056 16.515h179.024c13.84 0 27.233-5.802 37.501-16.515 10.268-11.159 16.519-26.781 16.519-42.85v-59.364h-286.619v59.364zM793.094 68.277c0-16.069-6.249-31.691-16.518-42.849-10.269-10.712-23.216-16.515-37.502-16.515h-447.338c-13.84 0-27.233 5.803-37.055 16.515-10.715 11.159-16.52 26.781-16.52 42.849v630.242h554.933v-630.242zM425.667 532.032c-19.644 0-35.716-16.069-35.716-35.708v-285.216c0-19.639 16.072-35.707 35.716-35.707s35.716 16.069 35.716 35.707v285.216c0 19.64-15.625 35.708-35.716 35.708zM604.696 532.032c-19.644 0-35.716-16.069-35.716-35.708v-285.216c0-19.639 16.072-35.707 35.716-35.707s35.716 16.069 35.716 35.707v285.216c0 19.64-16.072 35.708-35.716 35.708z" />
<glyph unicode="&#xe906;" glyph-name="scan" d="M52.322 601.269c28.023 0 51.042 23.014 51.042 51.031v101.061c0 28.017 23.019 51.031 51.042 51.031h127.104c28.024 0 51.042 23.014 51.042 51.031s-23.019 51.031-51.042 51.031h-127.104c-84.069 0-152.625-68.541-152.625-152.592v-101.561c0-28.518 22.519-51.031 50.542-51.031zM865.982 905.953h-127.105c-28.023 0-51.041-23.014-51.041-51.031s23.019-51.031 51.041-51.031h127.105c28.023 0 51.041-23.014 51.041-51.030v-101.562c0-28.017 23.020-51.031 51.042-51.031s51.042 23.014 51.042 51.031v102.061c-0.501 84.551-68.557 152.592-153.126 152.592zM281.505 92.463h-127.104c-28.024 0-51.042 23.013-51.042 51.030v101.562c0 28.017-23.019 51.031-51.042 51.031s-51.042-23.014-51.042-51.031v-101.562c0-84.050 68.557-152.592 152.626-152.592h127.105c28.023 0 51.041 23.014 51.041 51.031s-22.519 50.53-50.542 50.53zM968.066 296.086c-28.023 0-51.042-23.014-51.042-51.031v-101.562c0-28.017-23.019-51.030-51.041-51.030h-127.105c-28.023 0-51.041-23.014-51.041-51.031s23.019-51.030 51.041-51.030h127.105c84.069 0 152.626 68.54 152.626 152.592v101.561c0 28.518-22.519 51.532-50.542 51.532zM968.072 499.209h-915.755c-28.023 0-51.042-23.014-51.042-51.031s23.019-51.030 51.042-51.030h915.755c28.023 0 51.041 23.013 51.041 51.030s-23.019 51.031-51.041 51.031z" />
<glyph unicode="&#xe907;" glyph-name="arrow" d="M306.164-53.18c-21.545 0-43.089 8.322-59.248 24.477-32.807 32.799-32.807 85.669 0 118.468l359.893 359.814-359.893 359.814c-32.807 32.8-32.807 85.671 0 118.47s85.688 32.799 118.495 0l419.142-419.049c32.807-32.799 32.807-85.669 0-118.468l-419.142-419.048c-16.647-16.155-37.703-24.477-59.247-24.477z" />
<glyph unicode="&#xe908;" d="M850.902 950.654h-680.474c-94.037 0-169.933-76.25-169.933-169.895v-666.999c0-94.008 76.266-169.892 169.933-169.892h680.474c94.033 0 169.934 76.251 169.934 169.892v666.999c0 93.646-76.267 169.895-169.934 169.895zM450.318 221.846l23.324 80.32-163.268-145.465 162.528 559.284 77.376-150.277 27.027 93.276 114.399-222.455-241.386-214.681z" />
<glyph unicode="&#xe909;" d="M550.278 566.076l68.861-134.36-145.498-129.55-23.324-80.321 241.386 215.052-114.399 222.085-27.026-92.906z" />
<glyph unicode="&#xe90a;" d="M478.454 659.352v-0.37l-127.356-437.137 133.65 118.816 57.014 195.435-63.308 123.257z" />
<glyph unicode="&#xe90b;" d="M592.854 436.898l-51.091 99.198-57.014-195.435 108.105 96.237z" />
<glyph unicode="&#xe90c;" d="M358.129 214.072l-27.397-24.8 9.997 35.533 127.356 437.138 7.404 25.91 12.218-23.689 58.125-112.894 4.442 14.806-77.377 150.278-162.898-559.284 163.639 145.095 5.553 19.248-121.063-107.341z" />
<glyph unicode="&#xe90d;" d="M550.278 566.077l-4.442-14.806 56.274-109.561 4.072-7.404-6.294-5.552-120.693-107.34-5.553-19.248 145.498 129.549-68.862 134.361z" />
<glyph unicode="&#xe90e;" d="M475.489 687.853l-7.404-25.91-127.356-437.137-9.996-35.534 27.397 24.8 121.063 107.341 5.554 19.247-133.651-118.815 127.357 437.136v0.37l63.308-123.257 4.073 15.176-70.343 136.582z" />
<glyph unicode="&#xe90f;" d="M592.854 436.897l-108.105-96.237-5.553-19.247 126.987 112.892-4.073 7.404-56.274 109.561-4.073-15.176 51.091-99.197z" />
<glyph unicode="&#xe910;" d="M517.642 623.095c-15.436 0-28.557-10.803-28.557-24.307 0-13.118 12.735-24.307 28.557-24.307 15.436 0 28.557 10.803 28.557 24.307s-13.121 24.307-28.557 24.307z" />
<glyph unicode="&#xe911;" d="M545.814 514.678h-56.729v-192.913h56.729v192.913z" />
<glyph unicode="&#xe912;" d="M852.611 954.905h-675.344c-93.391 0-169.029-75.621-169.029-168.992v-675.581c0-93.367 75.638-168.996 169.029-168.996h675.344c93.391 0 169.029 75.628 169.029 168.996v675.581c0 93.37-75.637 168.992-169.029 168.992zM773.885 550.946c0-3.087-1.544-6.174-4.245-8.488s-6.174-3.473-10.033-3.473h-14.28v-11.961c0-3.087-1.543-6.174-4.244-8.488s-6.174-3.473-10.033-3.473h-14.28v-192.912h14.28c3.859 0 7.332-1.158 10.033-3.473s4.244-5.401 4.244-8.488v-11.961h14.28c3.859 0 7.332-1.158 10.033-3.473s4.245-5.4 4.245-8.487v-48.229c0-3.087-1.544-6.173-4.245-8.488s-6.174-3.473-10.033-3.473h-483.933c-3.859 0-7.333 1.158-10.034 3.473s-4.244 5.401-4.244 8.488v48.229c0 3.087 1.544 6.173 4.244 8.487s6.175 3.473 10.034 3.473h14.279v11.961c0 3.087 1.544 6.174 4.245 8.488s6.174 3.473 10.033 3.473h14.279v192.912h-14.279c-3.859 0-7.332 1.158-10.033 3.473s-4.245 5.401-4.245 8.488v11.961h-14.279c-3.859 0-7.333 1.158-10.034 3.473s-4.244 5.401-4.244 8.488v24.307c0 2.314 0.771 5.016 2.701 6.945 1.543 1.929 4.244 3.472 6.946 4.244l241.967 72.535c1.544 0.386 3.087 0.772 4.631 0.772s3.088-0.386 4.631-0.772l241.966-72.535c2.701-0.771 5.017-2.314 6.946-4.244 1.544-1.929 2.702-4.631 2.702-6.945v-24.307z" />
<glyph unicode="&#xe913;" d="M431.967 514.678h-56.73v-192.913h56.73v192.913z" />
<glyph unicode="&#xe914;" d="M659.652 514.678h-56.729v-192.913h56.729v192.913z" />
<glyph unicode="&#xe915;" d="M764.241 586.441l-241.966 72.535c-1.544 0.386-3.088 0.771-4.631 0.771s-3.087-0.385-4.631-0.771l-241.967-72.535c-2.701-0.771-5.017-2.315-6.946-4.244-1.544-1.929-2.701-4.63-2.701-6.945v-24.307c0-3.086 1.544-6.173 4.244-8.488s6.175-3.473 10.034-3.473h14.279v-11.96c0-3.087 1.544-6.174 4.245-8.489s6.174-3.472 10.033-3.472h14.279v-192.913h-14.279c-3.859 0-7.332-1.158-10.033-3.472s-4.245-5.402-4.245-8.489v-11.96h-14.279c-3.859 0-7.333-1.158-10.034-3.473s-4.244-5.401-4.244-8.488v-48.228c0-3.087 1.544-6.174 4.244-8.489s6.175-3.472 10.034-3.472h483.547c3.859 0 7.332 1.158 10.033 3.472s4.245 5.402 4.245 8.489v48.228c0 3.087-1.544 6.173-4.245 8.488s-6.174 3.473-10.033 3.473h-14.279v11.96c0 3.087-1.544 6.174-4.245 8.489s-6.174 3.472-10.033 3.472h-14.279v192.913h14.279c3.859 0 7.332 1.158 10.033 3.472s4.245 5.402 4.245 8.489v11.96h14.279c3.859 0 7.332 1.158 10.033 3.473s4.245 5.402 4.245 8.488v24.307c0 2.315-0.772 5.016-2.701 6.945-1.544 1.929-3.859 3.473-6.561 4.244zM432.357 321.765h-56.729v192.913h56.729v-192.913zM546.201 321.765h-56.729v192.913h56.729v-192.913zM517.643 574.867c-15.436 0-28.557 10.803-28.557 24.307 0 13.118 12.735 24.306 28.557 24.306 15.436 0 28.557-10.802 28.557-24.306 0-13.118-13.121-24.307-28.557-24.307zM660.044 321.765h-56.729v192.913h56.729v-192.913z" />
<glyph unicode="&#xe916;" d="M412.362 619.769h-74.84c-17.423 0-31.678-12.272-31.678-27.316v-64.134c0-15.044 14.255-27.317 31.678-27.317h74.84c17.422 0 31.678 12.273 31.678 27.317v64.134c0 15.044-14.256 27.316-31.678 27.316zM411.966 539.8c0-6.335-5.94-11.481-13.067-11.481h-47.518c-7.127 0-13.067 5.147-13.067 11.481v40.777c0 6.335 5.94 11.48 13.067 11.48h47.518c7.127 0 13.067-5.146 13.067-11.48v-40.777z" />
<glyph unicode="&#xe917;" d="M412.362 387.778h-74.84c-17.423 0-31.678-12.272-31.678-27.316v-64.134c0-15.044 14.255-27.317 31.678-27.317h74.84c17.422 0 31.678 12.273 31.678 27.317v64.134c0 15.044-14.256 27.316-31.678 27.316zM411.966 307.809c0-6.335-5.94-11.481-13.067-11.481h-47.518c-7.127 0-13.067 5.147-13.067 11.481v40.777c0 6.334 5.94 11.48 13.067 11.48h47.518c7.127 0 13.067-5.147 13.067-11.48v-40.777z" />
<glyph unicode="&#xe918;" d="M849.524 958.652h-677.915c-93.451 0-169.479-76.011-169.479-169.441v-677.765c0-93.428 76.028-169.444 169.479-169.444h677.915c93.456 0 169.481 76.016 169.481 169.444v677.765c0 93.826-75.634 169.441-169.481 169.441zM493.54 253.57c0-15.043-14.255-27.316-31.678-27.316h-174.23c-17.423 0-31.678 12.273-31.678 27.316v149.647c0 15.044 14.255 27.316 31.678 27.316h174.23c17.423 0 31.678-12.272 31.678-27.316v-149.647zM493.54 485.562c0-15.044-14.255-27.316-31.678-27.316h-174.23c-17.423 0-31.678 12.272-31.678 27.316v149.646c0 15.044 14.255 27.317 31.678 27.317h174.23c17.423 0 31.678-12.273 31.678-27.317v-149.646zM600.849 235.755c0-5.146-4.751-9.501-11.087-9.501h-50.685c-5.94 0-11.088 4.355-11.088 9.501v39.59c0 5.147 4.751 9.502 11.088 9.502h50.685c5.939 0 11.087-4.355 11.087-9.502v-39.59zM683.609 308.599c0-5.146-4.751-9.501-11.087-9.501h-50.685c-5.94 0-11.088 4.355-11.088 9.501v39.59c0 5.147 4.751 9.501 11.088 9.501h50.685c5.939 0 11.087-4.354 11.087-9.501v-39.59zM765.972 235.755c0-5.146-4.751-9.501-11.087-9.501h-50.686c-5.939 0-10.691 4.355-10.691 9.501v39.59c0 5.147 4.751 9.502 10.691 9.502h50.686c5.939 0 11.087-4.355 11.087-9.502v-39.59zM765.972 393.32c0-6.73-6.335-11.877-13.859-11.877h-209.869c-7.523 0-13.859 5.147-13.859 11.877v24.941c0 6.73 6.335 11.877 13.859 11.877h209.869c7.523 0 13.859-5.147 13.859-11.877v-24.941zM765.972 485.562c0-15.044-14.255-27.316-31.678-27.316h-174.23c-17.423 0-31.678 12.272-31.678 27.316v149.646c0 15.044 14.255 27.317 31.678 27.317h174.23c17.423 0 31.678-12.273 31.678-27.317v-149.646z" />
<glyph unicode="&#xe919;" d="M684.405 619.769h-74.84c-17.423 0-31.678-12.272-31.678-27.316v-64.134c0-15.044 14.255-27.317 31.678-27.317h74.84c17.423 0 31.678 12.273 31.678 27.317v64.134c0 15.044-13.86 27.316-31.678 27.316zM684.405 539.8c0-6.335-5.939-11.481-13.067-11.481h-47.518c-7.127 0-13.066 5.147-13.066 11.481v40.777c0 6.335 5.939 11.48 13.066 11.48h47.518c7.128 0 13.067-5.146 13.067-11.48v-40.777z" />
<glyph unicode="&#xe91a;" d="M461.866 662.131h-174.231c-17.422 0-31.678-12.273-31.678-27.317v-149.646c0-15.044 14.256-27.317 31.678-27.317h174.231c17.422 0 31.678 12.273 31.678 27.317v149.646c0 15.044-13.86 27.317-31.678 27.317zM444.046 527.924c0-15.044-14.255-27.317-31.678-27.317h-74.84c-17.423 0-31.678 12.273-31.678 27.317v64.134c0 15.044 14.255 27.317 31.678 27.317h74.84c17.423 0 31.678-12.273 31.678-27.317v-64.134z" />
<glyph unicode="&#xe91b;" d="M398.507 592.056h-47.518c-7.127 0-13.067-5.146-13.067-11.48v-40.777c0-6.335 5.94-11.481 13.067-11.481h47.518c7.127 0 13.067 5.147 13.067 11.481v40.777c0.395 6.335-5.544 11.48-13.067 11.48z" />
<glyph unicode="&#xe91c;" d="M461.866 430.137h-174.231c-17.422 0-31.678-12.273-31.678-27.317v-149.646c0-15.044 14.256-27.317 31.678-27.317h174.231c17.422 0 31.678 12.273 31.678 27.317v149.646c0 15.44-13.86 27.317-31.678 27.317zM444.046 296.326c0-15.044-14.255-27.317-31.678-27.317h-74.84c-17.423 0-31.678 12.273-31.678 27.317v64.134c0 15.044 14.255 27.316 31.678 27.316h74.84c17.423 0 31.678-12.272 31.678-27.316v-64.134z" />
<glyph unicode="&#xe91d;" d="M398.507 360.065h-47.518c-7.127 0-13.067-5.146-13.067-11.48v-40.777c0-6.335 5.94-11.481 13.067-11.481h47.518c7.127 0 13.067 5.147 13.067 11.481v40.777c0.395 6.335-5.544 11.48-13.067 11.48z" />
<glyph unicode="&#xe91e;" d="M734.291 662.131h-174.23c-17.422 0-31.678-12.273-31.678-27.317v-149.646c0-15.044 14.256-27.317 31.678-27.317h174.23c17.423 0 31.679 12.273 31.679 27.317v149.646c0 15.044-14.256 27.317-31.679 27.317zM716.076 527.924c0-15.044-14.255-27.317-31.678-27.317h-74.84c-17.423 0-31.678 12.273-31.678 27.317v64.134c0 15.044 14.255 27.317 31.678 27.317h74.84c17.423 0 31.678-12.273 31.678-27.317v-64.134z" />
<glyph unicode="&#xe91f;" d="M671.333 592.056h-47.518c-7.127 0-13.067-5.146-13.067-11.48v-40.777c0-6.335 5.94-11.481 13.067-11.481h47.518c7.127 0 13.067 5.147 13.067 11.481v40.777c0 6.335-5.94 11.48-13.067 11.48z" />
<glyph unicode="&#xe920;" d="M752.11 430.137h-209.868c-7.523 0-13.86-5.147-13.86-11.877v-24.941c0-6.73 6.336-11.877 13.86-11.877h209.868c7.524 0 13.86 5.147 13.86 11.877v24.941c0 6.73-6.335 11.877-13.86 11.877z" />
<glyph unicode="&#xe921;" d="M672.52 357.689h-50.685c-5.939 0-11.088-4.355-11.088-9.502v-39.589c0-5.147 4.752-9.501 11.088-9.501h50.685c5.939 0 11.087 4.354 11.087 9.501v39.589c0 5.147-5.148 9.502-11.087 9.502z" />
<glyph unicode="&#xe922;" d="M589.763 284.846h-50.684c-5.94 0-11.088-4.355-11.088-9.502v-39.589c0-5.147 4.751-9.501 11.088-9.501h50.684c5.94 0 11.088 4.354 11.088 9.501v39.589c0 5.147-4.751 9.502-11.088 9.502z" />
<glyph unicode="&#xe923;" d="M754.89 284.846h-50.686c-5.939 0-10.691-4.355-10.691-9.502v-39.589c0-5.147 4.751-9.501 10.691-9.501h50.686c5.939 0 11.087 4.354 11.087 9.501v39.589c0 5.147-5.148 9.502-11.087 9.502z" />
<glyph unicode="&#xe924;" glyph-name="bank-ac" horiz-adv-x="994" d="M991.017 51.838c-1.981 2.308-4.949 3.302-7.917 3.302h-10.893v81.156c0 2.968-1.321 5.936-3.302 8.244-1.974 2.315-4.949 3.302-7.917 3.302h-109.88v462.862h109.88c4.623 0 9.238 3.629 10.559 8.248 1.321 4.949-0.326 10.227-4.615 12.867l-461.647 323.97c-2.31 1.65-4.29 1.65-6.27 1.65-2.97-0.33-4.95-0.99-6.269-1.65l-461.645-323.97c-3.96-2.639-5.94-8.248-4.62-12.867 1.32-4.949 5.94-8.578 10.559-8.248h109.884v-462.862h-109.884c-2.97 0-5.61-1.321-7.919-3.302-1.98-2.308-3.3-4.942-3.3-8.244v-81.156h-10.889c-2.97 0-5.61-1.321-7.92-3.302-1.98-2.308-3.3-4.949-3.3-8.244v-92.709c0-2.968 1.32-5.936 3.3-8.244 1.98-2.315 4.95-3.302 7.92-3.302h967.509c2.968 0 5.61 1.321 7.917 3.302 1.981 2.308 3.302 4.949 3.302 8.244v92.709c0.66 3.295-0.334 6.263-2.642 8.244zM73.996 633.798l425.676 298.567 425.675-298.567h-851.351zM829.329 610.704v-462.862h-66.003v462.862h66.003zM741.55 610.704v-462.862h-88.105v462.862h88.105zM631.666 610.704v-462.862h-65.996v462.862h65.996zM543.561 610.704v-462.862h-88.106v462.862h88.106zM433.677 610.704v-462.862h-65.997v462.862h65.997zM345.572 610.704v-462.862h-88.106v462.862h88.106zM235.688 610.704v-462.862h-65.997v462.862h65.997zM48.918 124.75h901.51v-69.283h-901.51v69.283zM972.54-37.235h-945.731v69.276h945.397v-69.276h0.334zM499.67 830.753c-36.298 0-65.997-31.341-65.997-69.28s29.699-69.281 65.997-69.281c36.298 0 65.996 31.341 65.996 69.281s-29.698 69.28-65.996 69.28zM499.67 714.955c-24.419 0-43.887 20.455-43.887 46.188s19.469 46.187 43.887 46.187c24.419 0 43.887-20.454 43.887-46.187s-19.469-46.188-43.887-46.188z" />
<glyph unicode="&#xe925;" glyph-name="arrow-down" d="M515.383 134.258c-24.258 0-47.666 10.212-64.689 28.082l-417.498 443.359c-33.621 35.741-31.919 91.907 3.83 125.52s91.926 31.912 125.547-3.829l352.809-374.857 352.809 374.857c33.622 35.741 89.803 37.443 125.547 3.829 35.754-33.614 37.448-89.779 3.828-125.52l-417.495-443.359c-16.598-17.87-40.005-28.082-64.689-28.082z" />
<glyph unicode="&#xe926;" glyph-name="checked" d="M1004.284 867.53c-14.199 14.197-37.703 14.197-52.392 0l-466.147-466.044-121.433 121.407c-14.201 14.197-37.703 14.197-52.392 0-14.201-14.196-14.201-37.695 0-52.381l147.873-147.84c7.345-7.344 16.648-10.771 25.952-10.771s19.096 3.427 25.951 10.771l492.588 492.479c14.201 14.686 14.201 38.183 0 52.38zM928.879 484.71c-20.566 0-36.724-16.645-36.724-36.716v-344.638c0-16.644-6.365-31.821-18.117-43.57s-26.931-18.113-43.578-18.113h-689.428c-16.158 0-32.317 6.363-43.579 18.113-11.752 11.748-18.117 26.926-18.117 43.57v689.274c0 16.155 6.365 31.821 18.117 43.571 11.262 11.259 27.421 18.113 43.579 18.113h541.554c20.565 0 36.723 16.644 36.723 36.716 0 20.561-16.648 36.716-36.723 36.716h-541.554c-35.744 0-70.51-14.686-95.972-39.653s-39.662-60.213-39.662-95.95v-689.276c0-36.226 14.2-70.003 39.662-95.46 24.972-24.967 60.227-39.653 95.972-39.653h689.428c36.234 0 70.020 14.197 95.482 39.653s39.662 59.723 39.662 95.46v344.638c0 20.561-16.648 37.206-36.724 37.206z" />
<glyph unicode="&#xe927;" glyph-name="info" d="M510.709 951.448c-278.328 0-504.838-226.46-504.838-504.727s226.51-504.728 504.838-504.728c278.328 0 504.835 226.461 504.835 504.728s-226.506 504.727-504.835 504.727zM510.709 33.439c-227.687 0-412.977 185.254-412.977 412.891s185.29 412.887 412.977 412.887c227.688 0 412.975-185.25 412.975-412.887 0.397-227.637-184.895-412.891-412.975-412.891zM510.706 492.25c-25.517 0-45.93-20.408-45.93-45.92v-183.68c0-25.511 20.413-45.918 45.93-45.918s45.93 20.408 45.93 45.918v183.68c0 25.512-20.413 45.92-45.93 45.92zM511.102 675.929h-0.392c-25.517 0-45.538-20.409-45.538-45.921s20.806-45.919 46.323-45.919c25.517 0 45.93 20.408 45.93 45.919s-20.806 45.921-46.323 45.921z" />
<glyph unicode="&#xe928;" glyph-name="location" d="M811.125 827.901c-80.233 79.782-186.92 123.575-300.114 123.575s-219.881-43.793-300.113-123.575c-80.233-79.781-124.47-185.577-124.47-298.746 0-315.656 387.72-575.816 404.199-586.651 6.072-4.34 13.445-6.076 20.817-6.076s14.312 2.175 20.817 6.076c16.481 10.835 404.199 270.994 404.199 586.651-0.867 112.735-45.104 218.964-125.337 298.746zM510.578 19.248c-78.065 57.234-349.988 272.731-349.988 509.907 0 92.789 36.43 179.942 102.351 245.415s153.96 101.895 247.637 101.895c93.676 0 181.282-35.988 247.637-101.895 65.92-65.473 102.35-152.626 102.35-245.415 0-237.176-271.924-452.673-349.988-509.907zM510.579 674.843c-81.534 0-148.322-66.34-148.322-148.289s66.355-148.29 148.322-148.29c81.968 0 147.889 66.341 147.889 148.29s-65.921 148.289-147.889 148.289zM510.579 453.277c-40.333 0-73.293 32.953-73.293 73.277s32.96 73.277 73.293 73.277c40.334 0 73.294-32.953 73.294-73.277s-32.96-73.277-73.294-73.277z" />
<glyph unicode="&#xe929;" glyph-name="globe" d="M510.917 948.87c-279.165 0-506.192-224.338-506.192-500.472 0-276.136 227.027-500.473 506.522-500.473 279.162 0 506.52 224.338 506.52 500.473 0 276.133-227.358 500.472-506.85 500.472zM949.79 481.389h-218.444c-9.24 142.85-59.397 279.763-144.863 394.571 196.009-33.321 347.799-195.306 363.307-394.571zM665.348 481.389h-308.533c9.9 140.87 63.687 275.144 154.102 384.344 91.075-109.2 144.532-244.133 154.432-384.344zM435.681 875.96c-85.135-114.478-135.293-251.061-144.862-394.571h-218.448c15.179 199.264 166.971 361.25 363.31 394.571zM72.371 415.407h218.448c9.24-142.851 59.396-279.764 144.862-394.571-196.339 33.651-348.131 195.306-363.31 394.571zM356.815 415.407h308.533c-9.899-140.871-63.686-275.141-154.102-384.346-91.075 109.531-144.532 244.134-154.432 384.346zM586.152 20.836c85.136 114.48 135.293 251.060 144.863 394.571h218.448c-15.182-199.265-166.971-360.92-363.311-394.571z" />
<glyph unicode="&#xe92a;" glyph-name="image" d="M799.904 304.025v-192.013c0-26.4-21.6-48.006-47.994-48.006h-575.928c-26.397 0-47.994 21.606-47.994 48.006v576.042c0 26.402 21.597 48.004 47.994 48.004h144.942c26.396 0 47.994 21.601 47.994 48.003s-21.597 48.004-47.994 48.004h-192.936c-52.793 0-95.988-43.203-95.988-96.007v-672.052c0-52.8 43.195-96.006 95.988-96.006h671.916c52.794 0 95.987 43.206 95.987 96.006v240.019c0 26.403-21.6 48.003-47.994 48.003s-47.994-21.6-47.994-48.003zM679.923 160.018h-430.99c-20.158 0-31.196 23.040-18.718 38.88l83.51 107.046c9.599 12 27.836 12.48 37.435 0.48l74.871-90.246 112.786 144.969c9.599 12.483 28.797 12.483 37.916-0.48l122.385-162.729c12-15.36 0.48-37.92-19.194-37.92zM862.298 597.327c23.034 36.963 35.994 80.166 33.114 127.69-6.24 103.208-88.307 190.575-190.534 201.616-130.545 14.401-240.931-86.887-240.931-214.576 0-119.53 96.468-216.017 215.498-216.017 42.234 0 81.587 12.481 114.701 33.603l115.667-115.689c18.714-18.721 49.427-18.721 68.147 0s18.72 49.444 0 68.165l-115.661 115.209zM679.923 592.046c-66.237 0-119.989 53.764-119.989 120.010s53.752 120.009 119.989 120.009c66.227 0 119.981-53.764 119.981-120.009s-53.754-120.010-119.981-120.010z" />
<glyph unicode="&#xe92b;" glyph-name="close" d="M618.39 444.458l383.474 383.389c28.281 28.275 28.281 74.283 0 102.557-28.282 28.275-74.298 28.275-102.579 0l-383.474-383.389-383.474 383.389c-28.281 28.275-74.298 28.275-102.579 0s-28.281-74.282 0-102.557l383.474-383.389-383.474-383.389c-28.281-28.274-28.281-74.281 0-102.555 14.38-14.377 32.595-21.087 51.29-21.087s36.909 7.188 51.29 21.087l383.474 383.389 383.474-383.389c14.38-14.377 32.594-21.087 51.289-21.087s36.909 7.188 51.289 21.087c28.281 28.274 28.281 74.281 0 102.555l-383.474 383.389z" />
<glyph unicode="&#xe92c;" horiz-adv-x="768" d="M202.406-64l523.738 503.311-248.082 520.689-275.656-1024z" />
<glyph unicode="&#xe92d;" glyph-name="upi-id" horiz-adv-x="755" d="M700.632-55.016h-646.737c-29.714 0-53.895 24.181-53.895 53.895v790.457c0 29.714 24.181 53.894 53.895 53.894h179.649c29.715 0 53.895-24.181 53.895-53.894v-35.93c0-9.88 8.084-17.964 17.966-17.964h143.718c9.882 0 17.966 8.084 17.966 17.964v35.93c0 29.714 24.18 53.894 53.895 53.894h179.649c29.714 0 53.895-24.181 53.895-53.894v-790.457c0-29.714-24.181-53.895-53.895-53.895zM53.895 807.3c-9.881 0-17.965-8.084-17.965-17.964v-790.457c0-9.88 8.084-17.964 17.965-17.964h646.737c9.88 0 17.964 8.084 17.964 17.964v790.457c0 9.88-8.084 17.964-17.964 17.964h-179.649c-9.882 0-17.966-8.084-17.966-17.964v-35.93c0-29.714-24.18-53.895-53.895-53.895h-143.718c-29.715 0-53.895 24.181-53.895 53.895v35.93c0 9.88-8.084 17.964-17.966 17.964h-179.649zM449.121 699.511h-143.72c-29.714 0-53.895 24.18-53.895 53.895v143.719c0 29.714 24.181 53.895 53.895 53.895h143.72c29.714 0 53.895-24.181 53.895-53.895v-143.719c0-29.715-24.181-53.895-53.895-53.895zM305.401 915.089c-9.88 0-17.964-8.084-17.964-17.965v-143.719c0-9.882 8.084-17.966 17.964-17.966h143.72c9.88 0 17.964 8.084 17.964 17.966v143.719c0 9.881-8.084 17.965-17.964 17.965h-143.72zM377.256 430.072c66.237 0 119.933 53.695 119.933 119.933s-53.697 119.933-119.933 119.933c-66.238 0-119.935-53.695-119.935-119.933s53.697-119.933 119.935-119.933zM626.056 158.154h-497.556c0 156.583 111.383 283.523 248.778 283.523s248.778-126.94 248.778-283.523zM646.73 88.704h-538.947v-35.93h538.947v35.93z" />
<glyph unicode="&#xe92e;" glyph-name="currency" horiz-adv-x="727" d="M572.393 327.036v3.303h-390.116v-30.284h390.116v26.981zM572.393 220.497v3.303h-390.116v-30.284h390.116v26.981zM572.393 125.774v3.303h-390.116v-30.281h390.116v26.977zM524.007 929.466l-0.932 0.805h-377.080c-64.119 0-116.267-52.16-116.267-116.267v-726.568c0-64.119 52.148-116.267 116.267-116.267h445.734c64.106 0 116.254 52.148 116.254 116.254v682.951l-183.976 159.092zM60.013 814.004c0 47.412 38.582 85.983 85.983 85.983h365.812l165.891-143.466v-669.098c0-47.411-38.568-85.983-85.97-85.983h-445.734c-47.401 0-85.983 38.585-85.983 85.983v726.581zM679.721 724.439h3.303v3.305l-0.017 30.251v3.302h-102.717c-45.096 0-81.263 33.31-81.263 73.625v95.357h-36.299v-95.357c0-61.115 52.931-110.482 117.562-110.482h99.43zM469.937 672.304l-9.484-34.258h-181.163l9.484 34.258h181.162zM382.259 460.367l-97.356 114.774-0.194 28.84h46.257c12.001 0 21.871 2.127 29.613 6.385 7.872 4.387 13.741 10.26 17.613 17.613 3.871 7.485 5.807 15.808 5.807 24.969 0 9.935-1.807 18.709-5.421 26.322-3.61 7.613-9.355 13.549-17.223 17.807-7.872 4.258-18.26 6.387-31.163 6.387h-50.709l10.451 38.71h40.258c22.839 0 41.806-3.419 56.905-10.258 15.096-6.839 26.386-16.774 33.868-29.806 7.614-13.032 11.419-28.774 11.419-47.226 0-16.129-2.771-30.386-8.321-42.773-5.549-12.258-14.518-22.194-26.905-29.808-12.387-7.482-28.837-12.129-49.353-13.933l89.032-105.485v-2.517h-54.579zM470.128 742.174l-9.675-34.258h-148.066l9.484 34.258h148.257z" />
<glyph unicode="&#xe92f;" glyph-name="list" d="M194.438 672.834h811.919c9.74 0 17.643 7.886 17.643 17.605s-7.903 17.605-17.643 17.605h-811.919c-9.74 0-17.643-7.886-17.643-17.605s7.903-17.605 17.643-17.605zM1006.166 479.175h-811.918c-9.74 0-17.643-7.886-17.643-17.605s7.903-17.605 17.643-17.605h811.918c9.74 0 17.643 7.886 17.643 17.605s-7.903 17.605-17.643 17.605zM1006.166 222.991h-811.918c-9.74 0-17.643-7.884-17.643-17.604s7.903-17.604 17.643-17.604h811.918c9.74 0 17.643 7.884 17.643 17.604s-7.903 17.604-17.643 17.604zM33.631 656.872c18.573 0 33.63 15.025 33.63 33.559s-15.056 33.56-33.63 33.56c-18.573 0-33.631-15.025-33.631-33.56s15.058-33.559 33.631-33.559zM33.631 428.004c18.573 0 33.63 15.025 33.63 33.56s-15.056 33.559-33.63 33.559c-18.573 0-33.631-15.025-33.631-33.559s15.058-33.56 33.631-33.56zM33.631 172.009c18.573 0 33.63 15.027 33.63 33.559 0 18.536-15.056 33.559-33.63 33.559s-33.631-15.024-33.631-33.559c0-18.532 15.058-33.559 33.631-33.559z" />
<glyph unicode="&#xe930;" glyph-name="modular" horiz-adv-x="970" d="M950.399 311.53c0 7.737-6.287 14.034-14.010 14.034h-293.33v298.305c0 7.737-6.287 14.034-14.010 14.034h-293.508v305.503c0 7.737-6.287 14.034-14.010 14.034h-307.52c-7.724 0-14.011-6.297-14.011-14.034v-992.073c0-7.014 5.748-12.773 12.753-12.773h48.679c4.85 0 9.34 2.697 11.496 7.017l19.579 39.222h765.384l19.58-39.222c2.156-4.32 6.645-7.017 11.496-7.017h48.678c7.006 0 12.754 5.759 12.754 12.773v44.261c0 1.081 0.358 2.158 0.358 3.239v312.519l-0.358 0.178zM896.512-35.711l-10.24 20.51h38.26v-20.51h-28.020zM922.198 297.318l-0.361-284.273h-57.659c0 0-0.717 0-0.897 0h-220.4v284.273h279.318zM614.678 609.657v-596.612h-279.495v596.612h279.495zM25.147-35.711v20.51h38.26l-10.239-20.51h-28.022zM307.16 929.373v-916.327h-279.318v916.327h279.318zM250.933 477.782c9.52 0 17.064 7.737 17.064 17.093 0 9.353-7.724 17.090-17.064 17.090s-17.065-7.737-17.065-17.090c0-9.356 7.724-17.093 17.065-17.093zM554.695 297.677c9.521 0 17.066 7.737 17.066 17.093s-7.723 17.093-17.066 17.093c-9.34 0-17.063-7.737-17.063-17.093s7.723-17.093 17.063-17.093zM883.933 91.308c9.521 0 17.063 7.737 17.063 17.093s-7.723 17.093-17.063 17.093c-9.34 0-17.066-7.737-17.066-17.093s7.726-17.093 17.066-17.093z" />
<glyph unicode="&#xe931;" glyph-name="pvc" horiz-adv-x="922" d="M307.502-37.934h-295.386c-6.655 0-12.116 5.468-12.116 12.134v330.053c0 6.666 5.461 12.134 12.116 12.134h295.386c6.653 0 12.114-5.468 12.114-12.134v-330.053c0-6.666-5.46-12.134-12.114-12.134zM24.231-13.663h270.983v305.779h-270.983v-305.779zM728.996 389.023c8.701 0 15.869 7.178 15.869 15.895s-7.168 15.895-15.869 15.895c-8.704 0-15.872-7.178-15.872-15.895s7.168-15.895 15.872-15.895zM246.92 132.646c8.703 0 15.869 7.178 15.869 15.895s-7.166 15.898-15.869 15.898c-8.703 0-15.87-7.181-15.87-15.898s7.167-15.895 15.87-15.895zM909.194 922.824c0 6.495-6.313 11.964-14.162 11.964h-581.043c-7.852 0-14.164-5.299-14.164-11.964v-900.25c0 0 0-1.37 0.34-2.222 0-0.684-0.169-1.367-0.169-1.882v-45.294c0-6.495 6.313-11.965 14.162-11.965h53.583c5.46 0 10.237 2.565 12.628 6.666l25.254 42.732h397.942l25.257-42.732c2.388-4.101 7.165-6.666 12.626-6.666h53.583c7.849 0 14.162 5.299 14.162 11.965v45.294c0 0 0 1.198 0 1.71 0.172 0.855 0.343 1.539 0.343 2.394v900.25h-0.343zM881.039 910.859v-876.322h-73.549v876.322h73.549zM881.039 6.508v-21.537h-30.715l-12.628 21.537h43.343zM779.507 910.004v-875.296h-349.481v875.296h349.481zM328.494-15.030v21.537h43.343l-12.628-21.537h-30.715zM401.871 910.688v-876.32h-73.377v876.32h73.377z" />
<glyph unicode="&#xe932;" glyph-name="signage" d="M1013.278 487.766h-234.173v388.215c0 8.312-8.425 14.736-18 14.736-8.234 0-17.231-6.423-17.231-14.736v-388.215h-436.368v388.215c0 8.312-8.425 14.736-17.233 14.736-8.806 0-17.999-6.423-17.999-14.736v-388.215h-261.552c-6.128 0-10.723-6.423-10.723-14.735v-453.012c0-8.314 4.787-14.737 10.723-14.737h1002.556c6.128 0 10.722 6.423 10.722 14.737v453.012c0 8.311-4.788 14.735-10.722 14.735zM996.811 458.106v-423.352h-969.623v423.352h969.623zM265.669 233.086l-19.365-59.143h-24.898l63.4 188.139h29.046l63.629-188.139h-25.819l-19.827 59.143h-66.165zM326.761 252.18l-18.443 54.253c-3.919 12.341-6.686 23.519-9.451 34.23h-0.922c-2.538-10.943-5.535-22.586-9.221-33.997l-18.213-54.485h56.251zM463.473 359.29c10.605 2.56 27.435 4.19 44.032 4.19 23.976 0 39.424-4.19 50.951-13.738 9.681-7.218 15.676-18.393 15.676-33.296 0-18.396-12.219-34.23-31.583-41.447v-0.932c17.751-4.19 38.499-19.094 38.499-47.035 0-16.298-6.454-28.406-16.138-37.722-12.681-12.108-33.659-17.696-64.092-17.696-16.597 0-29.278 1.165-37.346 2.33v185.347zM487.449 282.216h21.903c25.127 0 40.113 13.738 40.113 31.901 0 21.886-16.368 30.734-40.575 30.734-11.065 0-17.292-0.93-21.211-1.63v-60.773l-0.23-0.233zM487.449 192.336c5.073-0.93 11.527-1.162 20.286-1.162 24.899 0 47.953 9.313 47.953 36.557 0 25.379-21.903 36.324-48.183 36.324h-19.827v-71.719h-0.23zM801.9 179.996c-8.529-4.423-26.513-8.848-49.105-8.848-52.561 0-91.754 33.529-91.754 95.235s39.421 98.495 97.285 98.495c23.054 0 37.808-5.123 44.265-8.15l-5.994-20.023c-8.759 4.423-21.9 7.915-37.348 7.915-43.57 0-72.618-28.174-72.618-77.303 0-46.105 26.281-75.444 71.237-75.444 14.984 0 29.738 3.028 39.421 7.918l4.611-19.562v-0.233zM951.432 95.395c8.81 0 15.894 6.991 15.894 15.681 0 8.688-7.085 15.678-15.894 15.678-8.806 0-15.891-6.991-15.891-15.678 0-8.69 7.085-15.681 15.891-15.681zM88.271 76.882c8.808 0 15.892 6.988 15.892 15.678s-7.084 15.681-15.892 15.681c-8.808 0-15.893-6.991-15.893-15.681s7.085-15.678 15.893-15.678z" />
<glyph unicode="&#xe933;" glyph-name="phone" d="M993.254 297.535c-20.942 24.38-49.912 40.402-82.024 44.93-43.281 5.573-86.213 16.371-127.050 31.695-23.385 8.708-48.866 10.798-73.299 5.573s-46.771-17.415-64.92-34.83l-41.884-41.795c-97.033 59.907-178.708 141.409-238.742 238.236l41.884 41.796c17.801 17.762 29.668 40.054 34.904 64.435s3.489 49.807-5.585 73.144c-15.357 40.751-25.828 83.591-31.762 127.129-4.537 31.347-20.245 59.908-44.327 80.806-23.736 20.55-53.403 31.347-85.864 31.347h-143.804c-18.15 0-35.951-3.831-52.705-11.146s-31.413-18.112-43.63-31.347c-12.216-13.584-21.64-29.257-27.225-46.324-6.283-17.415-8.377-35.178-6.632-53.987 16.405-152.555 69.109-301.627 152.53-430.15 76.090-119.117 179.056-222.215 298.426-297.795 128.446-83.243 277.136-135.838 430.014-152.555 3.84-0.349 8.028-0.697 11.868-0.697 14.31 0 28.272 2.438 41.884 6.966 17.451 5.921 33.158 14.977 46.421 27.515 13.613 12.191 24.084 27.168 31.414 43.886 7.329 16.719 11.168 34.481 10.819 52.593v143.151c0.698 32.043-10.471 62.694-31.064 87.074l0.349 0.349zM954.511 210.809v-143.848c0-8.708-1.746-16.719-5.236-24.73s-8.377-14.627-14.66-20.55c-6.282-5.921-13.613-10.101-21.641-12.887s-16.753-3.831-24.433-3.135c-141.708 15.326-279.578 64.436-399.298 141.758-110.994 70.357-206.63 165.791-277.484 276.897-77.836 119.816-126.701 258.090-141.71 399.499-0.698 8.36 0 17.067 2.792 25.078s6.981 15.325 12.914 21.595c5.585 6.269 12.565 11.146 20.593 14.629 7.679 3.483 16.056 5.225 24.433 5.225h144.85c14.66 0 28.622-5.225 39.79-14.629 11.169-9.752 18.5-22.988 20.594-37.268 6.282-48.413 18.499-96.479 35.601-142.107 4.189-10.797 4.886-22.64 2.443-34.133s-8.028-21.942-16.056-29.953l-61.082-60.953c-11.168-11.145-13.263-28.211-5.583-41.795 71.203-125.389 175.565-229.182 300.87-300.234 13.613-7.663 30.716-5.573 41.884 5.573l60.732 60.604c8.377 8.359 18.848 13.932 30.367 16.37s23.385 1.394 34.206-2.438c46.073-17.067 93.892-28.908 142.059-35.526 15.008-2.090 28.272-9.404 38.044-20.897 9.774-11.495 14.66-25.775 14.311-40.751v-0.697l0.698-0.696z" />
<glyph unicode="&#xe934;" glyph-name="stone" horiz-adv-x="1126" d="M1126.106 216.948c-0.812 3.615-6.089 27.129-42.441 187.498l-93.013 410.367c-0.812 3.416-2.639 6.632-5.28 9.043-1.826 1.809-4.058 3.215-6.089 4.622l-189.679 124.999c-7.107 4.622-16.654 7.034-25.996 6.431l-361.482-25.924c-2.437 0-4.874-0.804-7.107-1.608l-4.673-1.809c-2.232-0.804-4.263-2.211-5.888-3.617l-348.893-315.514c-1.421-1.205-2.437-2.813-3.249-4.219l-1.625-3.215c-0.812-1.608-1.218-3.215-1.421-4.823l-29.244-479.498c-0.406-6.229 4.061-11.858 11.575-14.469l487.8-168.008c2.437-0.802 5.076-1.205 7.919-1.205 3.249 0 6.704 0.604 9.748 2.010l599.494 263.462c7.107 3.215 10.967 9.445 9.544 15.677v-0.201zM45.11 216.344l22.948 375.801c0 1.406 0.812 2.813 2.031 4.021l274.768 248.39-299.746-628.212zM826.156 397.21c0.205-1.806 0-3.615-1.42-5.222-0.406-0.403-22.746-29.341-55.443-71.946-86.105-111.735-244.913-317.522-268.879-348.873-0.406-0.399-1.014-0.601-1.625-0.399-52.19 17.886-453.478 155.945-453.478 155.945s-0.406 0-0.609 0.201c22.542 47.025 330.006 692.32 367.372 771.499 1.625 3.416 5.687 5.828 10.359 6.23 58.689 4.421 326.755 23.714 326.755 23.714 2.843 0 5.687-1.608 6.093-3.818 10.561-80.184 63.768-482.714 71.281-527.528l-0.406 0.198zM845.046 359.229c1.219 1.608 3.451 2.813 5.888 3.014 2.437 0.403 4.874-0.201 6.905-1.608l213.641-142.886v-1.809l-509.327-223.672 282.894 366.961zM865.758 395.404c-2.232 1.608-3.656 3.615-3.857 6.028-5.485 49.435-54.832 426.645-65.597 507.834l151.702-99.879c3.656-2.412 6.093-5.627 6.905-9.445l123.269-546.42-212.422 141.882z" />
<glyph unicode="&#xe935;" glyph-name="wood" horiz-adv-x="1434" d="M1413.386 632.684h-128.594v306.859c0 11.365-8.984 20.457-20.214 20.457h-1074.218c-11.231 0-20.215-9.092-20.215-20.457v-324.474c0-11.366 8.985-20.46 20.215-20.46h128.592c0-58.528 0-245.204 0-293.219h-298.737c-11.231 0-20.215-9.093-20.215-20.46v-324.475c0-11.363 8.985-20.456 20.215-20.456h1074.219c11.23 0 20.214 9.093 20.214 20.456v311.122h298.738c11.23 0 20.214 9.093 20.214 20.456v324.478c0 11.363-8.984 20.456-20.214 20.456v-0.285zM510.996 592.053h93.498l-245.111-227.587v86.661l151.897 140.926h-0.283zM359.103 488.632v103.421h111.462l-111.462-103.421zM644.642 592.053h93.495l-305.756-283.843h-72.998v19.036l285.259 264.806zM778.288 592.053h93.495l-305.756-283.843h-93.495l305.756 283.843zM911.933 592.053h93.495l-305.756-283.843h-93.495l305.756 283.843zM1045.579 592.053h93.495l-305.756-283.843h-93.495l305.756 283.843zM1179.225 592.053h93.495l-305.756-283.843h-93.495l305.756 283.843zM210.295 919.37h1034.066v-283.845h-1034.066v283.845zM1074.217-23.084h-1034.067v283.843h1034.067v-283.843zM1393.169 308.21h-119.043l119.043 110.524v-110.524zM1393.169 455.956l-159.194-147.746h-96.024l255.498 244.35v-96.604h-0.28zM1393.169 588.076l-292.56-279.866h-93.775l305.756 283.843h80.579v-3.977z" />
<glyph unicode="&#xe936;" glyph-name="flex" horiz-adv-x="997" d="M955.608 940.618h-941.058c-8.083 0-14.55-6.657-14.55-14.753v-702.223c0-8.098 6.646-14.573 14.55-14.573h402.72v-239.112c0-8.098 6.648-14.573 14.552-14.573h106.518c8.082 0 14.729 6.656 14.729 14.573v239.112h402.72c8.082 0 14.729 6.656 14.729 14.573v702.223c0 8.096-6.648 14.753-14.729 14.753h-0.181zM523.787 205.829v-221.3h-77.237v221.3h77.237zM941.059 911.291v-672.895h-911.78v672.895h911.78z" />
<glyph unicode="&#xe937;" glyph-name="shoe" horiz-adv-x="1434" d="M1361.285 137.738l1.594 405.2 46.643 128.078c5.915 16.637 5.233 34.413-2.277 50.365s-20.705 28.031-37.086 34.185l-466.654 170.239c-29.809 10.939-58.703-2.051-72.356-32.133l-56.197-134.915-243.681-287.833c-33.673-39.885-80.316-67.686-131.28-78.626l-96.017-19.828-18.885-4.785-60.977-22.105c-58.474-18.005-106.254-54.695-127.642-105.288l-43.23-102.554h-7.963c-25.028 0-45.278-20.285-45.278-45.353v-80.674c0-25.071 20.25-45.353 45.278-45.353h1315.325c25.030 0 45.278 20.282 45.278 45.353v80.674c0 24.614-19.794 44.667-44.138 45.353h-0.457zM92.83 137.738l37.087 88.194c16.609 39.656 55.061 64.724 98.291 83.64l54.833 15.268c38.907-15.268 126.732-58.798 148.346-187.102h-338.557zM1324.428 398.681v-260.943h-233.216c10.694 213.767 170.871 250.685 233.216 260.943zM892.355 885.923l465.063-164.997c7.281-2.735 13.196-7.976 16.381-15.041 3.188-7.065 3.642-15.041 0.911-22.334l-41.636-114.862-515.574 191.663 22.525 54.24 22.525 57.43c4.55 11.851 17.746 18.004 29.805 13.674v0.228zM729.675 454.741l-125.594 45.582 39.134 46.032 145.162-52.869 12.513 34.639-132.192 48.316 39.134 46.034 151.76-55.379 12.513 34.642-139.018 50.592 62.112 73.383 531.958-193.942-5.236-91.843c-69.393-11.851-256.191-61.303-267.114-302.189h-585.878c-16.838 110.527-77.131 171.377-129.462 203.967l68.029 14.585c58.931 12.762 112.855 44.896 151.532 90.931l19.797 23.245 138.336-50.364 12.513 34.639zM1368.566 92.385v-80.674c0-4.56-3.867-8.434-8.417-8.434h-1315.326c-4.55 0-8.418 3.874-8.418 8.434v80.674c0 4.557 3.868 8.431 8.418 8.431h1315.326c4.55 0 8.417-3.874 8.417-8.431z" />
<glyph unicode="&#xe938;" horiz-adv-x="768" d="M27.053-64l523.741 503.311-248.086 520.689-275.656-1024z" />
<glyph unicode="&#xe939;" glyph-name="checkbox" d="M880.53 960h-736.271c-79.619 0-144.259-64.64-144.259-144.259v-735.482c0-79.618 64.64-144.259 144.259-144.259h735.482c79.618 0 144.259 64.641 144.259 144.259v735.482c0 79.619-64.641 144.259-144.259 144.259h0.789zM945.959 79.47c0-36.261-29.168-65.429-65.429-65.429h-736.271c-36.262 0-65.429 29.168-65.429 65.429v736.271c0 36.262 29.167 65.429 65.429 65.429h735.482c36.262 0 65.43-29.167 65.43-65.429v-735.482l0.788-0.789z" />
</font>
</defs>
</svg>
